<mxfile host="app.diagrams.net" agent="Mozilla/5.0 (Windows NT 10.0; Win64; x64) AppleWebKit/537.36 (KHTML, like Gecko) Chrome/131.0.0.0 Safari/537.36" version="25.0.1">
  <diagram name="第 1 页" id="RTJovubdE_YrsCHvYEaq">
    <mxGraphModel dx="1050" dy="569" grid="1" gridSize="10" guides="1" tooltips="1" connect="1" arrows="1" fold="1" page="1" pageScale="1" pageWidth="827" pageHeight="1169" math="0" shadow="0">
      <root>
        <mxCell id="0" />
        <mxCell id="1" parent="0" />
        <mxCell id="zeIB3MRSu70Jo39GSCDh-1" value="商城管理功能" style="swimlane;whiteSpace=wrap;html=1;" parent="1" vertex="1">
          <mxGeometry x="324" y="110" width="280" height="410" as="geometry" />
        </mxCell>
        <mxCell id="zeIB3MRSu70Jo39GSCDh-5" value="增加订单" style="ellipse;whiteSpace=wrap;html=1;fillColor=#dae8fc;strokeColor=#6c8ebf;" parent="zeIB3MRSu70Jo39GSCDh-1" vertex="1">
          <mxGeometry x="156" y="30" width="65" height="30" as="geometry" />
        </mxCell>
        <mxCell id="zeIB3MRSu70Jo39GSCDh-6" value="修改订单" style="ellipse;whiteSpace=wrap;html=1;fillColor=#dae8fc;strokeColor=#6c8ebf;" parent="zeIB3MRSu70Jo39GSCDh-1" vertex="1">
          <mxGeometry x="156" y="65" width="65" height="30" as="geometry" />
        </mxCell>
        <mxCell id="zeIB3MRSu70Jo39GSCDh-10" value="查看订单" style="ellipse;whiteSpace=wrap;html=1;fillColor=#dae8fc;strokeColor=#6c8ebf;" parent="zeIB3MRSu70Jo39GSCDh-1" vertex="1">
          <mxGeometry x="156" y="140" width="65" height="30" as="geometry" />
        </mxCell>
        <mxCell id="zeIB3MRSu70Jo39GSCDh-13" value="增加商品" style="ellipse;whiteSpace=wrap;html=1;fillColor=#dae8fc;strokeColor=#6c8ebf;" parent="zeIB3MRSu70Jo39GSCDh-1" vertex="1">
          <mxGeometry x="156" y="245" width="65" height="30" as="geometry" />
        </mxCell>
        <mxCell id="zeIB3MRSu70Jo39GSCDh-14" value="修改商品" style="ellipse;whiteSpace=wrap;html=1;fillColor=#dae8fc;strokeColor=#6c8ebf;" parent="zeIB3MRSu70Jo39GSCDh-1" vertex="1">
          <mxGeometry x="156" y="285" width="65" height="30" as="geometry" />
        </mxCell>
        <mxCell id="zeIB3MRSu70Jo39GSCDh-15" value="删除商品" style="ellipse;whiteSpace=wrap;html=1;fillColor=#dae8fc;strokeColor=#6c8ebf;" parent="zeIB3MRSu70Jo39GSCDh-1" vertex="1">
          <mxGeometry x="156" y="325" width="65" height="30" as="geometry" />
        </mxCell>
        <mxCell id="zeIB3MRSu70Jo39GSCDh-16" value="查看商品" style="ellipse;whiteSpace=wrap;html=1;fillColor=#dae8fc;strokeColor=#6c8ebf;" parent="zeIB3MRSu70Jo39GSCDh-1" vertex="1">
          <mxGeometry x="156" y="365" width="65" height="30" as="geometry" />
        </mxCell>
        <mxCell id="zeIB3MRSu70Jo39GSCDh-23" value="删除订单" style="ellipse;whiteSpace=wrap;html=1;fillColor=#dae8fc;strokeColor=#6c8ebf;" parent="zeIB3MRSu70Jo39GSCDh-1" vertex="1">
          <mxGeometry x="156" y="105" width="65" height="30" as="geometry" />
        </mxCell>
        <mxCell id="zeIB3MRSu70Jo39GSCDh-36" value="商家入驻" style="ellipse;whiteSpace=wrap;html=1;fillColor=#dae8fc;strokeColor=#6c8ebf;" parent="zeIB3MRSu70Jo39GSCDh-1" vertex="1">
          <mxGeometry x="156" y="172.5" width="65" height="30" as="geometry" />
        </mxCell>
        <mxCell id="zeIB3MRSu70Jo39GSCDh-38" value="商家注销" style="ellipse;whiteSpace=wrap;html=1;fillColor=#dae8fc;strokeColor=#6c8ebf;" parent="zeIB3MRSu70Jo39GSCDh-1" vertex="1">
          <mxGeometry x="156" y="210" width="65" height="30" as="geometry" />
        </mxCell>
        <mxCell id="zeIB3MRSu70Jo39GSCDh-26" value="普通用户" style="shape=umlActor;verticalLabelPosition=bottom;verticalAlign=top;html=1;fillColor=#f8cecc;strokeColor=#b85450;" parent="1" vertex="1">
          <mxGeometry x="220" y="222.5" width="30" height="60" as="geometry" />
        </mxCell>
        <mxCell id="zeIB3MRSu70Jo39GSCDh-27" value="商家" style="shape=umlActor;verticalLabelPosition=bottom;verticalAlign=top;html=1;fillColor=#f8cecc;strokeColor=#b85450;" parent="1" vertex="1">
          <mxGeometry x="220" y="317.5" width="30" height="60" as="geometry" />
        </mxCell>
        <mxCell id="zeIB3MRSu70Jo39GSCDh-29" value="" style="endArrow=block;endFill=0;html=1;rounded=0;fillColor=#d5e8d4;strokeColor=#82b366;exitX=0.5;exitY=0;exitDx=0;exitDy=0;exitPerimeter=0;entryX=0.5;entryY=0.5;entryDx=0;entryDy=0;entryPerimeter=0;" parent="1" source="zeIB3MRSu70Jo39GSCDh-27" target="zeIB3MRSu70Jo39GSCDh-26" edge="1">
          <mxGeometry width="160" relative="1" as="geometry">
            <mxPoint x="275" y="427.5" as="sourcePoint" />
            <mxPoint x="260" y="347.5" as="targetPoint" />
          </mxGeometry>
        </mxCell>
        <mxCell id="SpIIGXyJDKN4H7VPbkmo-3" value="" style="endArrow=none;html=1;rounded=0;fillColor=#d5e8d4;strokeColor=#82b366;entryX=1;entryY=0.3333333333333333;entryDx=0;entryDy=0;entryPerimeter=0;exitX=0;exitY=0.5;exitDx=0;exitDy=0;" edge="1" parent="1" source="zeIB3MRSu70Jo39GSCDh-23" target="zeIB3MRSu70Jo39GSCDh-26">
          <mxGeometry width="50" height="50" relative="1" as="geometry">
            <mxPoint x="777" y="170" as="sourcePoint" />
            <mxPoint x="691" y="170" as="targetPoint" />
          </mxGeometry>
        </mxCell>
        <mxCell id="SpIIGXyJDKN4H7VPbkmo-4" value="" style="endArrow=none;html=1;rounded=0;fillColor=#d5e8d4;strokeColor=#82b366;entryX=1;entryY=0.3333333333333333;entryDx=0;entryDy=0;entryPerimeter=0;exitX=0;exitY=0.5;exitDx=0;exitDy=0;" edge="1" parent="1" source="zeIB3MRSu70Jo39GSCDh-10" target="zeIB3MRSu70Jo39GSCDh-26">
          <mxGeometry width="50" height="50" relative="1" as="geometry">
            <mxPoint x="787" y="180" as="sourcePoint" />
            <mxPoint x="701" y="180" as="targetPoint" />
          </mxGeometry>
        </mxCell>
        <mxCell id="SpIIGXyJDKN4H7VPbkmo-5" value="" style="endArrow=none;html=1;rounded=0;fillColor=#d5e8d4;strokeColor=#82b366;entryX=1;entryY=0.3333333333333333;entryDx=0;entryDy=0;entryPerimeter=0;exitX=0;exitY=0.5;exitDx=0;exitDy=0;" edge="1" parent="1" source="zeIB3MRSu70Jo39GSCDh-36" target="zeIB3MRSu70Jo39GSCDh-26">
          <mxGeometry width="50" height="50" relative="1" as="geometry">
            <mxPoint x="797" y="190" as="sourcePoint" />
            <mxPoint x="711" y="190" as="targetPoint" />
          </mxGeometry>
        </mxCell>
        <mxCell id="SpIIGXyJDKN4H7VPbkmo-7" value="" style="endArrow=none;html=1;rounded=0;fillColor=#d5e8d4;strokeColor=#82b366;entryX=1;entryY=0.3333333333333333;entryDx=0;entryDy=0;entryPerimeter=0;exitX=0;exitY=0.5;exitDx=0;exitDy=0;" edge="1" parent="1" source="zeIB3MRSu70Jo39GSCDh-38" target="zeIB3MRSu70Jo39GSCDh-27">
          <mxGeometry width="50" height="50" relative="1" as="geometry">
            <mxPoint x="806" y="269.5" as="sourcePoint" />
            <mxPoint x="720" y="269.5" as="targetPoint" />
          </mxGeometry>
        </mxCell>
        <mxCell id="SpIIGXyJDKN4H7VPbkmo-8" value="" style="endArrow=none;html=1;rounded=0;fillColor=#d5e8d4;strokeColor=#82b366;entryX=1;entryY=0.3333333333333333;entryDx=0;entryDy=0;entryPerimeter=0;exitX=0;exitY=0.5;exitDx=0;exitDy=0;" edge="1" parent="1" source="zeIB3MRSu70Jo39GSCDh-10" target="zeIB3MRSu70Jo39GSCDh-27">
          <mxGeometry width="50" height="50" relative="1" as="geometry">
            <mxPoint x="827" y="220" as="sourcePoint" />
            <mxPoint x="741" y="220" as="targetPoint" />
          </mxGeometry>
        </mxCell>
        <mxCell id="SpIIGXyJDKN4H7VPbkmo-1" value="" style="endArrow=none;html=1;rounded=0;fillColor=#d5e8d4;strokeColor=#82b366;entryX=1;entryY=0.3333333333333333;entryDx=0;entryDy=0;entryPerimeter=0;exitX=0;exitY=0.5;exitDx=0;exitDy=0;" edge="1" parent="1" source="zeIB3MRSu70Jo39GSCDh-5" target="zeIB3MRSu70Jo39GSCDh-26">
          <mxGeometry width="50" height="50" relative="1" as="geometry">
            <mxPoint x="396" y="170" as="sourcePoint" />
            <mxPoint x="310" y="170" as="targetPoint" />
          </mxGeometry>
        </mxCell>
        <mxCell id="SpIIGXyJDKN4H7VPbkmo-2" value="" style="endArrow=none;html=1;rounded=0;fillColor=#d5e8d4;strokeColor=#82b366;entryX=1;entryY=0.3333333333333333;entryDx=0;entryDy=0;entryPerimeter=0;exitX=0;exitY=0.5;exitDx=0;exitDy=0;" edge="1" parent="1" source="zeIB3MRSu70Jo39GSCDh-6" target="zeIB3MRSu70Jo39GSCDh-26">
          <mxGeometry width="50" height="50" relative="1" as="geometry">
            <mxPoint x="476" y="229.5" as="sourcePoint" />
            <mxPoint x="390" y="229.5" as="targetPoint" />
          </mxGeometry>
        </mxCell>
        <mxCell id="SpIIGXyJDKN4H7VPbkmo-9" value="" style="endArrow=none;html=1;rounded=0;fillColor=#d5e8d4;strokeColor=#82b366;entryX=1;entryY=0.3333333333333333;entryDx=0;entryDy=0;entryPerimeter=0;exitX=0;exitY=0.5;exitDx=0;exitDy=0;" edge="1" parent="1" source="zeIB3MRSu70Jo39GSCDh-13" target="zeIB3MRSu70Jo39GSCDh-27">
          <mxGeometry width="50" height="50" relative="1" as="geometry">
            <mxPoint x="816" y="279.5" as="sourcePoint" />
            <mxPoint x="730" y="279.5" as="targetPoint" />
          </mxGeometry>
        </mxCell>
        <mxCell id="SpIIGXyJDKN4H7VPbkmo-10" value="" style="endArrow=none;html=1;rounded=0;fillColor=#d5e8d4;strokeColor=#82b366;entryX=1;entryY=0.3333333333333333;entryDx=0;entryDy=0;entryPerimeter=0;exitX=0;exitY=0.5;exitDx=0;exitDy=0;" edge="1" parent="1" source="zeIB3MRSu70Jo39GSCDh-14" target="zeIB3MRSu70Jo39GSCDh-27">
          <mxGeometry width="50" height="50" relative="1" as="geometry">
            <mxPoint x="826" y="289.5" as="sourcePoint" />
            <mxPoint x="740" y="289.5" as="targetPoint" />
          </mxGeometry>
        </mxCell>
        <mxCell id="SpIIGXyJDKN4H7VPbkmo-11" value="" style="endArrow=none;html=1;rounded=0;fillColor=#d5e8d4;strokeColor=#82b366;entryX=1;entryY=0.3333333333333333;entryDx=0;entryDy=0;entryPerimeter=0;exitX=0;exitY=0.5;exitDx=0;exitDy=0;" edge="1" parent="1" source="zeIB3MRSu70Jo39GSCDh-15" target="zeIB3MRSu70Jo39GSCDh-27">
          <mxGeometry width="50" height="50" relative="1" as="geometry">
            <mxPoint x="836" y="299.5" as="sourcePoint" />
            <mxPoint x="750" y="299.5" as="targetPoint" />
          </mxGeometry>
        </mxCell>
        <mxCell id="SpIIGXyJDKN4H7VPbkmo-12" value="" style="endArrow=none;html=1;rounded=0;fillColor=#d5e8d4;strokeColor=#82b366;entryX=1;entryY=0.3333333333333333;entryDx=0;entryDy=0;entryPerimeter=0;exitX=0;exitY=0.5;exitDx=0;exitDy=0;" edge="1" parent="1" source="zeIB3MRSu70Jo39GSCDh-6" target="zeIB3MRSu70Jo39GSCDh-27">
          <mxGeometry width="50" height="50" relative="1" as="geometry">
            <mxPoint x="410" y="264.5" as="sourcePoint" />
            <mxPoint x="324" y="264.5" as="targetPoint" />
          </mxGeometry>
        </mxCell>
        <mxCell id="SpIIGXyJDKN4H7VPbkmo-13" value="" style="endArrow=none;html=1;rounded=0;fillColor=#d5e8d4;strokeColor=#82b366;entryX=1;entryY=0.3333333333333333;entryDx=0;entryDy=0;entryPerimeter=0;exitX=0;exitY=0.5;exitDx=0;exitDy=0;" edge="1" parent="1" source="zeIB3MRSu70Jo39GSCDh-16" target="zeIB3MRSu70Jo39GSCDh-27">
          <mxGeometry width="50" height="50" relative="1" as="geometry">
            <mxPoint x="846" y="309.5" as="sourcePoint" />
            <mxPoint x="760" y="309.5" as="targetPoint" />
          </mxGeometry>
        </mxCell>
        <mxCell id="SpIIGXyJDKN4H7VPbkmo-14" value="" style="endArrow=none;html=1;rounded=0;fillColor=#d5e8d4;strokeColor=#82b366;entryX=1;entryY=0.3333333333333333;entryDx=0;entryDy=0;entryPerimeter=0;exitX=0;exitY=0.5;exitDx=0;exitDy=0;" edge="1" parent="1" source="zeIB3MRSu70Jo39GSCDh-16" target="zeIB3MRSu70Jo39GSCDh-26">
          <mxGeometry width="50" height="50" relative="1" as="geometry">
            <mxPoint x="856" y="319.5" as="sourcePoint" />
            <mxPoint x="770" y="319.5" as="targetPoint" />
          </mxGeometry>
        </mxCell>
      </root>
    </mxGraphModel>
  </diagram>
</mxfile>
